<svg width="200" height="200" viewBox="0 0 200 200" fill="none" xmlns="http://www.w3.org/2000/svg">
<g clip-path="url(#clip0_5748_6873)">
<rect width="200" height="200" fill="white"/>
<path d="M46 107.919V88H49V112H45.228L31 92.0803V112H28V88H31.772L46 107.919Z" fill="black"/>
<path d="M71.5 91H56.5V98.5H68.5V101.5H56.5V109H71.5V112H53.5V88H71.5V91Z" fill="black"/>
<path d="M86.5 97.6636L94.594 88H98.5V88.0081L88.4563 100L98.5 111.991V112H94.594L86.5 102.336L78.4067 112H74.5V111.992L84.5437 100L74.5 88.0073V88H78.4067L86.5 97.6636Z" fill="black"/>
<path d="M122.5 91H113.5V112H110.5V91H101.5V88H122.5V91Z" fill="black"/>
<path d="M124 112H121V109H124V112Z" fill="black"/>
<path fill-rule="evenodd" clip-rule="evenodd" d="M135.7 88C139.987 88 143.223 88.7169 145.318 90.8403C147.41 92.9614 148 96.1211 148 100C148 103.879 147.41 107.039 145.318 109.16C143.223 111.283 139.987 112 135.7 112H127V88H135.7ZM130 109H135.7C139.812 109 141.977 108.275 143.182 107.053C144.39 105.829 145 103.738 145 100C145 96.262 144.39 94.1715 143.182 92.9468C141.977 91.7245 139.812 91 135.7 91H130V109Z" fill="black"/>
<path d="M172 101.75C172 105.08 171.39 107.789 169.521 109.606C167.663 111.413 164.906 112 161.5 112C158.083 112 155.403 111.407 153.574 109.91C151.671 108.352 151 106.082 151 103.5V102H154V103.5C154 105.585 154.529 106.814 155.475 107.589C156.497 108.426 158.317 109 161.5 109C164.694 109 166.438 108.42 167.43 107.456C168.41 106.503 169 104.836 169 101.75V91H160V88H172V101.75Z" fill="black"/>
<path d="M250 0L144.754 0C103.607 0 83.034 0 72.7074 8.37631C63.7312 15.6572 58.614 26.6703 58.8377 38.2259C59.0951 51.5201 72.3623 67.2442 98.8966 98.6923L101.103 101.308C127.638 132.756 140.905 148.48 141.162 161.774C141.386 173.33 136.269 184.343 127.293 191.624C116.966 200 96.3926 200 55.2459 200H-50H250V0Z" fill="url(#paint0_radial_5748_6873)"/>
</g>
<defs>
<radialGradient id="paint0_radial_5748_6873" cx="0" cy="0" r="1" gradientUnits="userSpaceOnUse" gradientTransform="translate(100 100) rotate(90) scale(100)">
<stop stop-opacity="0.1"/>
<stop offset="1" stop-color="white" stop-opacity="0.1"/>
</radialGradient>
<clipPath id="clip0_5748_6873">
<rect width="200" height="200" fill="white"/>
</clipPath>
</defs>
</svg>
